HIERARCHY
ROOT Hips
{
	OFFSET 0.00000 0.00000 0.00000
	CHANNELS 6 Xposition Yposition Zposition Zrotation Yrotation Xrotation 
	JOINT LHipJoint
	{
		OFFSET 0 0 0
		CHANNELS 3 Zrotation Yrotation Xrotation
		JOINT LeftUpLeg
		{
			OFFSET 1.28366 -1.58472 0.87544
			CHANNELS 3 Zrotation Yrotation Xrotation
			JOINT LeftLeg
			{
				OFFSET 2.18587 -6.00562 0.00000
				CHANNELS 3 Zrotation Yrotation Xrotation
				JOINT LeftFoot
				{
					OFFSET 2.39085 -6.56880 0.00000
					CHANNELS 3 Zrotation Yrotation Xrotation
					JOINT LeftToeBase
					{
						OFFSET 0.12003 -0.32979 2.03101
						CHANNELS 3 Zrotation Yrotation Xrotation
						End Site
						{
							OFFSET 0.00000 -0.00000 1.04074
						}
					}
				}
			}
		}
	}
	JOINT RHipJoint
	{
		OFFSET 0 0 0
		CHANNELS 3 Zrotation Yrotation Xrotation
		JOINT RightUpLeg
		{
			OFFSET -1.21795 -1.58472 0.87544
			CHANNELS 3 Zrotation Yrotation Xrotation
			JOINT RightLeg
			{
				OFFSET -2.22714 -6.11902 0.00000
				CHANNELS 3 Zrotation Yrotation Xrotation
				JOINT RightFoot
				{
					OFFSET -2.40306 -6.60235 0.00000
					CHANNELS 3 Zrotation Yrotation Xrotation
					JOINT RightToeBase
					{
						OFFSET -0.15519 -0.42640 1.91430
						CHANNELS 3 Zrotation Yrotation Xrotation
						End Site
						{
							OFFSET -0.00000 -0.00000 0.99082
						}
					}
				}
			}
		}
	}
	JOINT LowerBack
	{
		OFFSET 0 0 0
		CHANNELS 3 Zrotation Yrotation Xrotation
		JOINT Spine
		{
			OFFSET 0.01180 1.76430 -0.06387
			CHANNELS 3 Zrotation Yrotation Xrotation
			JOINT Spine1
			{
				OFFSET -0.00388 1.74651 0.09536
				CHANNELS 3 Zrotation Yrotation Xrotation
				JOINT Neck
				{
					OFFSET 0 0 0
					CHANNELS 3 Zrotation Yrotation Xrotation
					JOINT Neck1
					{
						OFFSET 0.04111 1.46174 0.14397
						CHANNELS 3 Zrotation Yrotation Xrotation
						JOINT Head
						{
							OFFSET 0.00502 1.44580 -0.31711
							CHANNELS 3 Zrotation Yrotation Xrotation
							End Site
							{
								OFFSET -0.00395 1.49251 -0.12327
							}
						}
					}
				}
				JOINT LeftShoulder
				{
					OFFSET 0 0 0
					CHANNELS 3 Zrotation Yrotation Xrotation
					JOINT LeftArm
					{
						OFFSET 2.70917 1.34870 -0.15417
						CHANNELS 3 Zrotation Yrotation Xrotation
						JOINT LeftForeArm
						{
							OFFSET 4.46610 -0.00000 -0.00000
							CHANNELS 3 Zrotation Yrotation Xrotation
							JOINT LeftHand
							{
								OFFSET 3.41414 -0.00000 0.00000
								CHANNELS 3 Zrotation Yrotation Xrotation
								JOINT LeftFingerBase
								{
									OFFSET 0 0 0
									CHANNELS 3 Zrotation Yrotation Xrotation
									JOINT LeftHandIndex1
									{
										OFFSET 0.32830 -0.00000 0.00000
										CHANNELS 3 Zrotation Yrotation Xrotation
										End Site
										{
											OFFSET 0.26468 -0.00000 0.00000
										}
									}
								}
								JOINT LThumb
								{
									OFFSET 0 0 0
									CHANNELS 3 Zrotation Yrotation Xrotation
									End Site
									{
										OFFSET 0.26872 -0.00000 0.26872
									}
								}
							}
						}
					}
				}
				JOINT RightShoulder
				{
					OFFSET 0 0 0
					CHANNELS 3 Zrotation Yrotation Xrotation
					JOINT RightArm
					{
						OFFSET -3.06316 1.13725 -0.10883
						CHANNELS 3 Zrotation Yrotation Xrotation
						JOINT RightForeArm
						{
							OFFSET -4.40431 -0.00000 0.00000
							CHANNELS 3 Zrotation Yrotation Xrotation
							JOINT RightHand
							{
								OFFSET -3.04688 -0.00000 0.00000
								CHANNELS 3 Zrotation Yrotation Xrotation
								JOINT RightFingerBase
								{
									OFFSET 0 0 0
									CHANNELS 3 Zrotation Yrotation Xrotation
									JOINT RightHandIndex1
									{
										OFFSET -0.50049 -0.00000 0.00000
										CHANNELS 3 Zrotation Yrotation Xrotation
										End Site
										{
											OFFSET -0.40351 -0.00000 0.00000
										}
									}
								}
								JOINT RThumb
								{
									OFFSET 0 0 0
									CHANNELS 3 Zrotation Yrotation Xrotation
									End Site
									{
										OFFSET -0.40967 -0.00000 0.40967
									}
								}
							}
						}
					}
				}
			}
		}
	}
}
MOTION
Frames: 9
Frame Time: .0083333
7.2604 14.9911 0.7834 -172.7500 -16.8569 -174.2890 0.0000 0.0000 0.0000 -8.6853 16.1295 -57.9245 7.3827 15.6459 50.3074 1.9369 12.4882 -33.2617 0.0018 0.2752 0.7562 0.0000 0.0000 0.0000 29.9677 -15.7585 -34.2576 -6.0828 -14.5081 45.3133 -1.8113 -1.7633 -26.1241 -0.0012 -0.2255 0.6196 -0.1688 0.2487 5.7833 10.5541 0.0302 -5.0959 11.7891 -0.0115 -8.7824 0.0185 -4.1747 -18.0278 -8.3991 -4.8047 26.4123 -3.9038 -3.7048 11.3647 -0.0000 0.0000 0.0000 -52.7729 3.1502 85.7826 105.3141 -59.0950 -73.2221 -0.0000 0.0000 -80.1612 -25.7221 12.1471 -5.7883 -7.1250 0.0000 -0.0000 -42.8848 38.0708 9.5815 -0.0000 0.0000 0.0000 71.3578 15.8780 26.4988 -24.9043 36.1060 -8.2334 0.0000 -0.0000 -40.6913 -53.5937 17.0278 -21.6581 7.1250 -0.0000 -0.0000 -15.9960 -3.5705 -15.5999
7.2310 15.0226 0.7622 -172.7790 -17.1118 -174.2540 0.0000 0.0000 0.0000 -9.0988 15.6253 -56.4918 6.5766 14.9648 47.2543 1.9437 13.3589 -33.9653 0.0032 0.3648 1.0024 0.0000 0.0000 0.0000 29.8332 -15.7860 -33.8881 -5.9525 -14.3822 44.7908 -1.7641 -1.9497 -25.8659 -0.0005 -0.1510 0.4149 -0.1492 0.2351 5.5440 10.6824 -0.0165 -5.1031 11.9246 -0.0464 -8.6421 0.0899 -4.1425 -18.0425 -8.4534 -4.7729 26.5131 -3.9387 -3.6959 11.4037 0.0000 -0.0000 0.0000 -52.8894 3.2401 86.0038 105.3352 -59.0925 -73.2402 -0.0000 0.0000 -80.2240 -25.5999 12.2667 -5.8124 -7.1250 0.0000 -0.0000 -42.8735 38.1873 9.4083 0.0000 -0.0000 0.0000 71.2751 15.2587 28.4567 -25.7057 36.9167 -8.7103 0.0000 -0.0000 -43.1794 -53.2875 15.9495 -20.2284 7.1250 -0.0000 -0.0000 -16.1059 -5.2532 -15.1900
7.2002 15.0520 0.7406 -172.8280 -17.3059 -174.2130 0.0000 0.0000 0.0000 -9.4921 15.1330 -54.9662 5.8144 14.2461 44.2323 1.9047 14.2663 -34.4608 0.0023 0.3092 0.8496 0.0000 0.0000 0.0000 29.6484 -15.7559 -33.5226 -5.8415 -14.2729 44.3422 -1.7172 -2.1049 -25.5947 -0.0001 -0.0617 0.1696 -0.1589 0.2404 5.3045 10.7961 -0.0388 -5.1090 12.0572 -0.0666 -8.5054 0.1344 -4.1209 -18.0485 -8.4738 -4.7577 26.6180 -3.9588 -3.6925 11.4436 -0.0000 -0.0000 0.0000 -52.9874 3.3244 86.2304 105.3827 -59.0867 -73.2810 -0.0000 0.0000 -80.2820 -25.5380 12.3887 -5.8527 -7.1250 0.0000 -0.0000 -42.9001 38.2969 9.2592 -0.0000 -0.0000 0.0000 71.1397 14.6264 30.4070 -26.5730 37.7689 -9.2364 0.0000 -0.0000 -45.7505 -53.0303 14.8869 -18.8453 7.1250 -0.0000 -0.0000 -16.2361 -6.8973 -14.7908
7.1678 15.0795 0.7197 -172.8930 -17.4870 -174.1760 0.0000 0.0000 0.0000 -9.8561 14.6234 -53.4019 5.1273 13.5258 41.3699 1.8532 15.0408 -34.8046 0.0017 0.2658 0.7303 0.0000 0.0000 0.0000 29.4188 -15.6964 -33.1727 -5.7515 -14.1832 43.9762 -1.6709 -2.2075 -25.3029 -0.0000 0.0175 -0.0480 -0.1745 0.2480 5.0833 10.8936 -0.0554 -5.1186 12.1749 -0.0825 -8.3846 0.1526 -4.1076 -18.0427 -8.4567 -4.7570 26.7241 -3.9622 -3.6932 11.4828 -0.0000 0.0000 0.0000 -53.0693 3.4066 86.4564 105.4437 -59.0793 -73.3333 -0.0000 0.0000 -80.3293 -25.4813 12.4874 -5.8834 -7.1250 0.0000 -0.0000 -42.9177 38.3865 9.1357 -0.0000 0.0000 0.0000 70.9526 13.9932 32.3402 -27.4984 38.6504 -9.8088 0.0000 -0.0000 -48.3573 -52.8100 13.8558 -17.5165 7.1250 -0.0000 -0.0000 -16.3770 -8.4861 -14.3980
7.1349 15.1060 0.7005 -172.9530 -17.6545 -174.1510 0.0000 0.0000 0.0000 -10.1471 14.0961 -51.8712 4.5409 12.8474 38.7999 1.7912 15.7020 -35.0173 0.0013 0.2348 0.6452 0.0000 0.0000 0.0000 29.1654 -15.5897 -32.8323 -5.6831 -14.1140 43.6962 -1.6237 -2.2547 -24.9774 -0.0003 0.1044 -0.2869 -0.1833 0.2589 4.8980 10.9812 -0.0636 -5.1314 12.2781 -0.0933 -8.2900 0.1612 -4.0971 -18.0345 -8.4199 -4.7632 26.8379 -3.9581 -3.6954 11.5251 -0.0000 -0.0000 0.0000 -53.1361 3.4905 86.6745 105.5195 -59.0701 -73.3983 -0.0000 0.0000 -80.3603 -25.4263 12.5550 -5.9000 -7.1250 0.0000 -0.0000 -42.9202 38.4507 9.0436 -0.0000 -0.0000 0.0000 70.7175 13.3771 34.2502 -28.4689 39.5443 -10.4209 0.0000 -0.0000 -50.9446 -52.6089 12.8618 -16.2379 7.1250 -0.0000 -0.0000 -16.5174 -10.0181 -14.0028
7.1026 15.1319 0.6842 -172.9940 -17.8051 -174.1440 0.0000 0.0000 0.0000 -10.3387 13.5615 -50.4502 4.0691 12.2517 36.6284 1.7284 16.2646 -35.1565 0.0015 0.2476 0.6802 0.0000 0.0000 0.0000 28.9030 -15.4199 -32.4994 -5.6364 -14.0665 43.5043 -1.5718 -2.2593 -24.5929 -0.0014 0.2383 -0.6549 -0.1814 0.2762 4.7743 11.0635 -0.0578 -5.1484 12.3708 -0.0956 -8.2393 0.1768 -4.0859 -18.0245 -8.3810 -4.7714 26.9540 -3.9547 -3.6977 11.5677 -0.0000 0.0000 0.0000 -53.1907 3.5783 86.8789 105.6044 -59.0596 -73.4711 -0.0000 0.0000 -80.3811 -25.3921 12.6105 -5.9164 -7.1250 0.0000 -0.0000 -42.9284 38.5010 8.9736 -0.0000 0.0000 0.0000 70.4435 12.7944 36.1310 -29.4690 40.4338 -11.0636 0.0000 -0.0000 -53.4662 -52.4155 11.9076 -15.0070 7.1250 -0.0000 -0.0000 -16.6504 -11.4922 -13.6011
7.0723 15.1577 0.6717 -173.0070 -17.9342 -174.1590 0.0000 0.0000 0.0000 -10.4264 13.0492 -49.2083 3.7116 11.7664 34.9106 1.6828 16.6982 -35.2886 0.0028 0.3431 0.9426 0.0000 0.0000 0.0000 28.6397 -15.1617 -32.1694 -5.6126 -14.0422 43.4066 -1.5160 -2.1997 -24.1445 -0.0039 0.4009 -1.1016 -0.1697 0.2996 4.7269 11.1423 -0.0375 -5.1649 12.4563 -0.0891 -8.2362 0.2248 -4.0660 -18.0301 -8.3586 -4.7718 27.0776 -3.9628 -3.6953 11.6152 0.0000 -0.0000 0.0000 -53.2304 3.6742 87.0548 105.6971 -59.0482 -73.5506 -0.0000 0.0000 -80.3942 -25.3575 12.6468 -5.9239 -7.1250 0.0000 -0.0000 -42.9265 38.5360 8.9224 0.0000 -0.0000 0.0000 70.1490 12.2676 37.9849 -30.4852 41.3056 -11.7285 0.0000 -0.0000 -55.8954 -52.2149 10.9756 -13.7978 7.1250 -0.0000 -0.0000 -16.7719 -12.9379 -13.1812
7.0448 15.1832 0.6635 -172.9870 -18.0457 -174.1950 0.0000 0.0000 0.0000 -10.4193 12.5799 -48.1889 3.4568 11.4002 33.6417 1.6669 16.9821 -35.4555 0.0066 0.5240 1.4399 0.0000 0.0000 0.0000 28.3787 -14.8080 -31.8539 -5.6157 -14.0453 43.4190 -1.4591 -2.0543 -23.6429 -0.0082 0.5852 -1.6082 -0.1488 0.3288 4.7589 11.2141 -0.0025 -5.1758 12.5304 -0.0735 -8.2769 0.3236 -4.0372 -18.0603 -8.3601 -4.7661 27.2038 -3.9886 -3.6876 11.6665 -0.0000 -0.0000 0.0000 -53.2417 3.7747 87.1898 105.7968 -59.0358 -73.6362 -0.0000 0.0000 -80.4042 -25.3289 12.6616 -5.9231 -7.1250 0.0000 -0.0000 -42.9166 38.5521 8.8957 -0.0000 -0.0000 0.0000 69.8504 11.8095 39.8205 -31.5190 42.1603 -12.4168 0.0000 -0.0000 -58.2454 -52.0105 10.0594 -12.6068 7.1250 -0.0000 -0.0000 -16.8856 -14.3615 -12.7458
7.0207 15.2076 0.6593 -172.9570 -18.1412 -174.2340 0.0000 0.0000 0.0000 -10.3556 12.1652 -47.4045 3.2839 11.1411 32.7571 1.6746 17.1539 -35.6517 0.0132 0.7417 2.0383 0.0000 0.0000 0.0000 28.1046 -14.3602 -31.5839 -5.6507 -14.0811 43.5633 -1.4015 -1.8237 -23.0916 -0.0163 0.8232 -2.2625 -0.1405 0.3599 4.8555 11.2721 0.0409 -5.1776 12.5974 -0.0506 -8.3475 0.4762 -3.9986 -18.1221 -8.3799 -4.7540 27.3256 -4.0302 -3.6728 11.7204 0.0000 -0.0000 0.0000 -53.2198 3.8864 87.2725 105.9169 -59.0207 -73.7391 -0.0000 0.0000 -80.4069 -25.2895 12.6446 -5.9049 -7.1250 0.0000 -0.0000 -42.8830 38.5437 8.8963 0.0000 -0.0000 0.0000 69.5697 11.4303 41.6364 -32.5750 43.0008 -13.1313 0.0000 -0.0000 -60.5313 -51.8166 9.1497 -11.4306 7.1250 -0.0000 -0.0000 -17.0029 -15.7716 -12.3023
